REM DIRINDEX 1\2,1\3,1\4,1\5\6,1\5\7,1\8
REM DIRNAME folder01,folder02,folder03,folder04,folder05,folder06,folder07,folder08
TITLE ""
FILE "038 【038】Unit2 (DATA FILE_長文問題に出現する専門用語2).mp3" MP3
  TRACK 01 AUDIO
    TITLE "0:"
    INDEX 01 00:00:00
  TRACK 02 AUDIO
    TITLE "8:cjc115_1414"
    INDEX 01 00:00:07
  TRACK 03 AUDIO
    TITLE "0:"
    INDEX 01 00:01:40
  TRACK 04 AUDIO
    TITLE "6:cjc115_1415"
    INDEX 01 00:02:14
  TRACK 05 AUDIO
    TITLE "0:"
    INDEX 01 00:03:74
  TRACK 06 AUDIO
    TITLE "7:cjc115_1416"
    INDEX 01 00:04:09
  TRACK 07 AUDIO
    TITLE "0:"
    INDEX 01 00:05:52
  TRACK 08 AUDIO
    TITLE "6:cjc115_1417"
    INDEX 01 00:06:69
  TRACK 09 AUDIO
    TITLE "0:"
    INDEX 01 00:08:36
  TRACK 10 AUDIO
    TITLE "7:cjc115_1418"
    INDEX 01 00:08:44
  TRACK 11 AUDIO
    TITLE "0:"
    INDEX 01 00:09:47
  TRACK 12 AUDIO
    TITLE "6:cjc115_1419"
    INDEX 01 00:10:57
  TRACK 13 AUDIO
    TITLE "0:"
    INDEX 01 00:11:70
  TRACK 14 AUDIO
    TITLE "7:cjc115_1420"
    INDEX 01 00:12:07
  TRACK 15 AUDIO
    TITLE "0:"
    INDEX 01 00:13:67
  TRACK 16 AUDIO
    TITLE "6:cjc115_1421"
    INDEX 01 00:15:03
  TRACK 17 AUDIO
    TITLE "0:"
    INDEX 01 00:16:18
  TRACK 18 AUDIO
    TITLE "7:cjc115_1422"
    INDEX 01 00:16:24
  TRACK 19 AUDIO
    TITLE "0:"
    INDEX 01 00:18:64
  TRACK 20 AUDIO
    TITLE "6:cjc115_1423"
    INDEX 01 00:19:71
  TRACK 21 AUDIO
    TITLE "0:"
    INDEX 01 00:21:57
  TRACK 22 AUDIO
    TITLE "7:cjc115_1424"
    INDEX 01 00:21:70
  TRACK 23 AUDIO
    TITLE "0:"
    INDEX 01 00:23:55
  TRACK 24 AUDIO
    TITLE "6:cjc115_1425"
    INDEX 01 00:24:67
  TRACK 25 AUDIO
    TITLE "0:"
    INDEX 01 00:26:46
  TRACK 26 AUDIO
    TITLE "7:cjc115_1426"
    INDEX 01 00:26:58
  TRACK 27 AUDIO
    TITLE "0:"
    INDEX 01 00:28:37
  TRACK 28 AUDIO
    TITLE "6:cjc115_1427"
    INDEX 01 00:29:44
  TRACK 29 AUDIO
    TITLE "0:"
    INDEX 01 00:30:54
  TRACK 30 AUDIO
    TITLE "7:cjc115_1428"
    INDEX 01 00:30:61
  TRACK 31 AUDIO
    TITLE "0:"
    INDEX 01 00:31:67
  TRACK 32 AUDIO
    TITLE "6:cjc115_1429"
    INDEX 01 00:33:03
  TRACK 33 AUDIO
    TITLE "0:"
    INDEX 01 00:34:59
  TRACK 34 AUDIO
    TITLE "7:cjc115_1430"
    INDEX 01 00:34:65
  TRACK 35 AUDIO
    TITLE "0:"
    INDEX 01 00:37:67
  TRACK 36 AUDIO
    TITLE "6:cjc115_1431"
    INDEX 01 00:38:73
  TRACK 37 AUDIO
    TITLE "0:"
    INDEX 01 00:40:05
  TRACK 38 AUDIO
    TITLE "7:cjc115_1432"
    INDEX 01 00:40:17
  TRACK 39 AUDIO
    TITLE "0:"
    INDEX 01 00:42:14
  TRACK 40 AUDIO
    TITLE "6:cjc115_1433"
    INDEX 01 00:43:27
  TRACK 41 AUDIO
    TITLE "0:"
    INDEX 01 00:45:08
  TRACK 42 AUDIO
    TITLE "7:cjc115_1434"
    INDEX 01 00:45:16
  TRACK 43 AUDIO
    TITLE "0:"
    INDEX 01 00:46:29
  TRACK 44 AUDIO
    TITLE "6:cjc115_1435"
    INDEX 01 00:47:38
  TRACK 45 AUDIO
    TITLE "0:"
    INDEX 01 00:49:25
  TRACK 46 AUDIO
    TITLE "7:cjc115_1436"
    INDEX 01 00:49:35
  TRACK 47 AUDIO
    TITLE "0:"
    INDEX 01 00:50:58
  TRACK 48 AUDIO
    TITLE "6:cjc115_1437"
    INDEX 01 00:51:65
  TRACK 49 AUDIO
    TITLE "0:"
    INDEX 01 00:53:49
  TRACK 50 AUDIO
    TITLE "7:cjc115_1438"
    INDEX 01 00:53:53
  TRACK 51 AUDIO
    TITLE "0:"
    INDEX 01 00:55:51
  TRACK 52 AUDIO
    TITLE "6:cjc115_1439"
    INDEX 01 00:56:61
  TRACK 53 AUDIO
    TITLE "0:"
    INDEX 01 00:58:20
  TRACK 54 AUDIO
    TITLE "7:cjc115_1440"
    INDEX 01 00:58:24
  TRACK 55 AUDIO
    TITLE "0:"
    INDEX 01 00:59:51
  TRACK 56 AUDIO
    TITLE "6:cjc115_1441"
    INDEX 01 01:00:59
  TRACK 57 AUDIO
    TITLE "0:"
    INDEX 01 01:02:32
  TRACK 58 AUDIO
    TITLE "7:cjc115_1442"
    INDEX 01 01:02:42
  TRACK 59 AUDIO
    TITLE "0:"
    INDEX 01 01:04:11
  TRACK 60 AUDIO
    TITLE "6:cjc115_1443"
    INDEX 01 01:05:21
  TRACK 61 AUDIO
    TITLE "0:"
    INDEX 01 01:06:34
  TRACK 62 AUDIO
    TITLE "7:cjc115_1444"
    INDEX 01 01:06:42
  TRACK 63 AUDIO
    TITLE "0:"
    INDEX 01 01:09:44
  TRACK 64 AUDIO
    TITLE "6:cjc115_1445"
    INDEX 01 01:10:53
  TRACK 65 AUDIO
    TITLE "0:"
    INDEX 01 01:11:70
  TRACK 66 AUDIO
    TITLE "7:cjc115_1446"
    INDEX 01 01:12:03
  TRACK 67 AUDIO
    TITLE "0:"
    INDEX 01 01:13:18
  TRACK 68 AUDIO
    TITLE "6:cjc115_1447"
    INDEX 01 01:14:25
  TRACK 69 AUDIO
    TITLE "0:"
    INDEX 01 01:15:60
  TRACK 70 AUDIO
    TITLE "7:cjc115_1448"
    INDEX 01 01:15:64
  TRACK 71 AUDIO
    TITLE "0:"
    INDEX 01 01:16:60
  TRACK 72 AUDIO
    TITLE "6:cjc115_1449"
    INDEX 01 01:17:67
  TRACK 73 AUDIO
    TITLE "0:"
    INDEX 01 01:19:40
  TRACK 74 AUDIO
    TITLE "7:cjc115_1450"
    INDEX 01 01:19:46
  TRACK 75 AUDIO
    TITLE "0:"
    INDEX 01 01:20:71
  TRACK 76 AUDIO
    TITLE "6:cjc115_1451"
    INDEX 01 01:22:03
  TRACK 77 AUDIO
    TITLE "0:"
    INDEX 01 01:23:44
  TRACK 78 AUDIO
    TITLE "7:cjc115_1452"
    INDEX 01 01:23:52
  TRACK 79 AUDIO
    TITLE "0:"
    INDEX 01 01:24:73
  TRACK 80 AUDIO
    TITLE "6:cjc115_1453"
    INDEX 01 01:26:05
  TRACK 81 AUDIO
    TITLE "0:"
    INDEX 01 01:27:65
  TRACK 82 AUDIO
    TITLE "7:cjc115_1454"
    INDEX 01 01:27:73
  TRACK 83 AUDIO
    TITLE "0:"
    INDEX 01 01:29:37
  TRACK 84 AUDIO
    TITLE "6:cjc115_1455"
    INDEX 01 01:30:48
  TRACK 85 AUDIO
    TITLE "0:"
    INDEX 01 01:32:29
  TRACK 86 AUDIO
    TITLE "7:cjc115_1456"
    INDEX 01 01:32:35
  TRACK 87 AUDIO
    TITLE "0:"
    INDEX 01 01:34:05
  TRACK 88 AUDIO
    TITLE "6:cjc115_1457"
    INDEX 01 01:35:14
  TRACK 89 AUDIO
    TITLE "0:"
    INDEX 01 01:37:07
  TRACK 90 AUDIO
    TITLE "7:cjc115_1458"
    INDEX 01 01:37:17
  TRACK 91 AUDIO
    TITLE "0:"
    INDEX 01 01:39:31
  TRACK 92 AUDIO
    TITLE "6:cjc115_1459"
    INDEX 01 01:40:40
  TRACK 93 AUDIO
    TITLE "0:"
    INDEX 01 01:41:73
  TRACK 94 AUDIO
    TITLE "7:cjc115_1460"
    INDEX 01 01:42:04
  TRACK 95 AUDIO
    TITLE "0:"
    INDEX 01 01:43:41
  TRACK 96 AUDIO
    TITLE "6:cjc115_1461"
    INDEX 01 01:44:48
  TRACK 97 AUDIO
    TITLE "0:"
    INDEX 01 01:46:08
  TRACK 98 AUDIO
    TITLE "7:cjc115_1462"
    INDEX 01 01:46:18
  TRACK 99 AUDIO
    TITLE "0:"
    INDEX 01 01:47:40
  TRACK 100 AUDIO
    TITLE "6:cjc115_1463"
    INDEX 01 01:48:48
  TRACK 101 AUDIO
    TITLE "0:"
    INDEX 01 01:50:15
  TRACK 102 AUDIO
    TITLE "7:cjc115_1464"
    INDEX 01 01:50:23
  TRACK 103 AUDIO
    TITLE "0:"
    INDEX 01 01:51:68
  TRACK 104 AUDIO
    TITLE "6:cjc115_1465"
    INDEX 01 01:53:04
  TRACK 105 AUDIO
    TITLE "0:"
    INDEX 01 01:54:58
  TRACK 106 AUDIO
    TITLE "7:cjc115_1466"
    INDEX 01 01:54:66
  TRACK 107 AUDIO
    TITLE "0:"
    INDEX 01 01:56:49
  TRACK 108 AUDIO
    TITLE "6:cjc115_1467"
    INDEX 01 01:57:60
  TRACK 109 AUDIO
    TITLE "0:"
    INDEX 01 01:59:32
  TRACK 110 AUDIO
    TITLE "7:cjc115_1468"
    INDEX 01 01:59:42
  TRACK 111 AUDIO
    TITLE "0:"
    INDEX 01 02:01:01
  TRACK 112 AUDIO
    TITLE "6:cjc115_1469"
    INDEX 01 02:02:11
  TRACK 113 AUDIO
    TITLE "0:"
    INDEX 01 02:04:02
  TRACK 114 AUDIO
    TITLE "7:cjc115_1470"
    INDEX 01 02:04:12
  TRACK 115 AUDIO
    TITLE "0:"
    INDEX 01 02:05:62
  TRACK 116 AUDIO
    TITLE "6:cjc115_1471"
    INDEX 01 02:06:71
  TRACK 117 AUDIO
    TITLE "0:"
    INDEX 01 02:08:31
  TRACK 118 AUDIO
    TITLE "7:cjc115_1472"
    INDEX 01 02:08:41
  TRACK 119 AUDIO
    TITLE "0:"
    INDEX 01 02:10:04
  TRACK 120 AUDIO
    TITLE "6:cjc115_1473"
    INDEX 01 02:11:14
  TRACK 121 AUDIO
    TITLE "0:"
    INDEX 01 02:12:31
  TRACK 122 AUDIO
    TITLE "7:cjc115_1474"
    INDEX 01 02:12:40
  TRACK 123 AUDIO
    TITLE "0:"
    INDEX 01 02:13:50
  TRACK 124 AUDIO
    TITLE "6:cjc115_1475"
    INDEX 01 02:14:59
  TRACK 125 AUDIO
    TITLE "0:"
    INDEX 01 02:15:74
  TRACK 126 AUDIO
    TITLE "7:cjc115_1476"
    INDEX 01 02:16:09
  TRACK 127 AUDIO
    TITLE "0:"
    INDEX 01 02:18:53
  TRACK 128 AUDIO
    TITLE "6:cjc115_1477"
    INDEX 01 02:19:60
  TRACK 129 AUDIO
    TITLE "0:"
    INDEX 01 02:21:26
  TRACK 130 AUDIO
    TITLE "7:cjc115_1478"
    INDEX 01 02:21:37
  TRACK 131 AUDIO
    TITLE "0:"
    INDEX 01 02:22:66
  TRACK 132 AUDIO
    TITLE "6:cjc115_1479"
    INDEX 01 02:23:74
  TRACK 133 AUDIO
    TITLE "0:"
    INDEX 01 02:25:41
  TRACK 134 AUDIO
    TITLE "7:cjc115_1480"
    INDEX 01 02:25:53
  TRACK 135 AUDIO
    TITLE "0:"
    INDEX 01 02:27:11
  TRACK 136 AUDIO
    TITLE "6:cjc115_1481"
    INDEX 01 02:28:18
  TRACK 137 AUDIO
    TITLE "0:"
    INDEX 01 02:29:57
  TRACK 138 AUDIO
    TITLE "7:cjc115_1482"
    INDEX 01 02:29:66
  TRACK 139 AUDIO
    TITLE "0:"
    INDEX 01 02:31:04
  TRACK 140 AUDIO
    TITLE "6:cjc115_1483"
    INDEX 01 02:32:14
  TRACK 141 AUDIO
    TITLE "0:"
    INDEX 01 02:33:68
  TRACK 142 AUDIO
    TITLE "7:cjc115_1484"
    INDEX 01 02:34:03
  TRACK 143 AUDIO
    TITLE "0:"
    INDEX 01 02:35:00
  TRACK 144 AUDIO
    TITLE "6:cjc115_1485"
    INDEX 01 02:36:08
  TRACK 145 AUDIO
    TITLE "0:"
    INDEX 01 02:38:10
  TRACK 146 AUDIO
    TITLE "7:cjc115_1486"
    INDEX 01 02:38:18
  TRACK 147 AUDIO
    TITLE "0:"
    INDEX 01 02:39:29
  TRACK 148 AUDIO
    TITLE "6:cjc115_1487"
    INDEX 01 02:40:37
  TRACK 149 AUDIO
    TITLE "0:"
    INDEX 01 02:41:50
  TRACK 150 AUDIO
    TITLE "7:cjc115_1488"
    INDEX 01 02:41:60
  TRACK 151 AUDIO
    TITLE "0:"
    INDEX 01 02:44:11
  TRACK 152 AUDIO
    TITLE "6:cjc115_1489"
    INDEX 01 02:45:18
  TRACK 153 AUDIO
    TITLE "0:"
    INDEX 01 02:46:59
  TRACK 154 AUDIO
    TITLE "7:cjc115_1490"
    INDEX 01 02:46:71
  TRACK 155 AUDIO
    TITLE "0:"
    INDEX 01 02:48:23
  TRACK 156 AUDIO
    TITLE "6:cjc115_1491"
    INDEX 01 02:49:34
  TRACK 157 AUDIO
    TITLE "0:"
    INDEX 01 02:53:28
  TRACK 158 AUDIO
    TITLE "7:cjc115_1492"
    INDEX 01 02:53:35
  TRACK 159 AUDIO
    TITLE "0:"
    INDEX 01 02:55:34
  TRACK 160 AUDIO
    TITLE "6:cjc115_1493"
    INDEX 01 02:56:44
  TRACK 161 AUDIO
    TITLE "0:"
    INDEX 01 02:58:13
  TRACK 162 AUDIO
    TITLE "7:cjc115_1494"
    INDEX 01 02:58:23
  TRACK 163 AUDIO
    TITLE "0:"
    INDEX 01 02:59:69
  TRACK 164 AUDIO
    TITLE "6:cjc115_1495"
    INDEX 01 03:01:04
  TRACK 165 AUDIO
    TITLE "0:"
    INDEX 01 03:02:48
  TRACK 166 AUDIO
    TITLE "7:cjc115_1496"
    INDEX 01 03:02:58
  TRACK 167 AUDIO
    TITLE "0:"
    INDEX 01 03:03:65
  TRACK 168 AUDIO
    TITLE "6:cjc115_1497"
    INDEX 01 03:04:72
  TRACK 169 AUDIO
    TITLE "0:"
    INDEX 01 03:06:11
  TRACK 170 AUDIO
    TITLE "7:cjc115_1498"
    INDEX 01 03:06:20
  TRACK 171 AUDIO
    TITLE "0:"
    INDEX 01 03:08:35
  TRACK 172 AUDIO
    TITLE "6:cjc115_1499"
    INDEX 01 03:09:46
  TRACK 173 AUDIO
    TITLE "0:"
    INDEX 01 03:10:73
  TRACK 174 AUDIO
    TITLE "7:cjc115_1500"
    INDEX 01 03:11:04
  TRACK 175 AUDIO
    TITLE "0:"
    INDEX 01 03:12:19
  TRACK 176 AUDIO
    TITLE "6:cjc115_1501"
    INDEX 01 03:13:30
  TRACK 177 AUDIO
    TITLE "0:"
    INDEX 01 03:14:65
  TRACK 178 AUDIO
    TITLE "7:cjc115_1502"
    INDEX 01 03:14:73
  TRACK 179 AUDIO
    TITLE "0:"
    INDEX 01 03:17:28
  TRACK 180 AUDIO
    TITLE "6:cjc115_1503"
    INDEX 01 03:18:35
  TRACK 181 AUDIO
    TITLE "0:"
    INDEX 01 03:20:05
  TRACK 182 AUDIO
    TITLE "7:cjc115_1504"
    INDEX 01 03:20:13
  TRACK 183 AUDIO
    TITLE "0:"
    INDEX 01 03:21:16
  TRACK 184 AUDIO
    TITLE "6:cjc115_1505"
    INDEX 01 03:22:25
  TRACK 185 AUDIO
    TITLE "0:"
    INDEX 01 03:23:56
  TRACK 186 AUDIO
    TITLE "7:cjc115_1506"
    INDEX 01 03:23:58
  TRACK 187 AUDIO
    TITLE "0:"
    INDEX 01 03:25:02
  TRACK 188 AUDIO
    TITLE "6:cjc115_1507"
    INDEX 01 03:26:07
  TRACK 189 AUDIO
    TITLE "0:"
    INDEX 01 03:28:51
  TRACK 190 AUDIO
    TITLE "7:cjc115_1508"
    INDEX 01 03:28:61
  TRACK 191 AUDIO
    TITLE "0:"
    INDEX 01 03:30:68
  TRACK 192 AUDIO
    TITLE "6:cjc115_1509"
    INDEX 01 03:32:02
  TRACK 193 AUDIO
    TITLE "0:"
    INDEX 01 03:33:60
  TRACK 194 AUDIO
    TITLE "7:cjc115_1510"
    INDEX 01 03:33:62
  TRACK 195 AUDIO
    TITLE "0:"
    INDEX 01 03:35:22
  TRACK 196 AUDIO
    TITLE "6:cjc115_1511"
    INDEX 01 03:36:31
  TRACK 197 AUDIO
    TITLE "0:"
    INDEX 01 03:37:56
  TRACK 198 AUDIO
    TITLE "7:cjc115_1512"
    INDEX 01 03:37:66
  TRACK 199 AUDIO
    TITLE "0:"
    INDEX 01 03:39:08
  TRACK 200 AUDIO
    TITLE "6:cjc115_1513"
    INDEX 01 03:40:17
  TRACK 201 AUDIO
    TITLE "0:"
    INDEX 01 03:41:40
  TRACK 202 AUDIO
    TITLE "7:cjc115_1514"
    INDEX 01 03:41:50
  TRACK 203 AUDIO
    TITLE "0:"
    INDEX 01 03:42:57
  TRACK 204 AUDIO
    TITLE "6:cjc115_1515"
    INDEX 01 03:43:65
  TRACK 205 AUDIO
    TITLE "0:"
    INDEX 01 03:47:49
  TRACK 206 AUDIO
    TITLE "7:cjc115_1516"
    INDEX 01 03:47:59
  TRACK 207 AUDIO
    TITLE "0:"
    INDEX 01 03:49:05
  TRACK 208 AUDIO
    TITLE "6:cjc115_1517"
    INDEX 01 03:50:16
  TRACK 209 AUDIO
    TITLE "0:"
    INDEX 01 03:51:54
  TRACK 210 AUDIO
    TITLE "7:cjc115_1518"
    INDEX 01 03:51:64
  TRACK 211 AUDIO
    TITLE "0:"
    INDEX 01 03:53:32
  TRACK 212 AUDIO
    TITLE "6:cjc115_1519"
    INDEX 01 03:54:39
  TRACK 213 AUDIO
    TITLE "0:"
    INDEX 01 03:55:52
  TRACK 214 AUDIO
    TITLE "7:cjc115_1520"
    INDEX 01 03:55:60
  TRACK 215 AUDIO
    TITLE "0:"
    INDEX 01 03:58:23
  TRACK 216 AUDIO
    TITLE "6:cjc115_1521"
    INDEX 01 03:59:32
  TRACK 217 AUDIO
    TITLE "0:"
    INDEX 01 04:01:08
  TRACK 218 AUDIO
    TITLE "7:cjc115_1522"
    INDEX 01 04:01:21
  TRACK 219 AUDIO
    TITLE "0:"
    INDEX 01 04:02:58
  TRACK 220 AUDIO
    TITLE "6:cjc115_1523"
    INDEX 01 04:03:65
  TRACK 221 AUDIO
    TITLE "0:"
    INDEX 01 04:05:41
  TRACK 222 AUDIO
    TITLE "7:cjc115_1524"
    INDEX 01 04:05:51
  TRACK 223 AUDIO
    TITLE "0:"
    INDEX 01 04:06:74
  TRACK 224 AUDIO
    TITLE "6:cjc115_1525"
    INDEX 01 04:08:10
  TRACK 225 AUDIO
    TITLE "0:"
    INDEX 01 04:10:44
  TRACK 226 AUDIO
    TITLE "7:cjc115_1526"
    INDEX 01 04:10:54
  TRACK 227 AUDIO
    TITLE "0:"
    INDEX 01 04:12:02
